Coordinates
version=1
nRows=17
nColumns=38
inDegrees=no

Units are S.I. units (second, meters, Newtons, ...)
If the header above contains a line with 'inDegrees', this indicates whether rotational values are in degrees (yes) or radians (no).

endheader
time	pelvis_tilt	pelvis_list	pelvis_rotation	pelvis_tx	pelvis_ty	pelvis_tz	hip_flexion_r	hip_adduction_r	hip_rotation_r	knee_angle_r	ankle_angle_r	subtalar_angle_r	mtp_angle_r	hip_flexion_l	hip_adduction_l	hip_rotation_l	knee_angle_l	ankle_angle_l	subtalar_angle_l	mtp_angle_l	lumbar_extension	lumbar_bending	lumbar_rotation	arm_flex_r	arm_add_r	arm_rot_r	elbow_flex_r	pro_sup_r	wrist_flex_r	wrist_dev_r	arm_flex_l	arm_add_l	arm_rot_l	elbow_flex_l	pro_sup_l	wrist_flex_l	wrist_dev_l
20.52	2.98541	1.28606	-1.323	0.680119	-0.220175	0.955135	-0.332702	0.0448972	-0.0614408	0.249724	-0.204664	0	0	-0.29591	-0.1352	-0.0912272	0.334441	-0.144158	0	0	-0.27406	0.0467977	0.0722051	0.369352	-0.479896	0.133001	1.45968	1.5708	0	0	0.692301	-0.32772	0.581029	1.13005	1.5708	0	0
20.53	2.98686	1.28604	-1.3235	0.680049	-0.219369	0.955093	-0.334701	0.0447146	-0.0617515	0.247545	-0.206593	0	0	-0.297644	-0.135156	-0.0907307	0.332455	-0.145264	0	0	-0.273384	0.0469692	0.0731389	0.366393	-0.481147	0.130456	1.46189	1.5708	0	0	0.692239	-0.326497	0.582494	1.12986	1.5708	0	0
20.54	2.98739	1.28657	-1.32332	0.679949	-0.218562	0.955035	-0.335825	0.0441314	-0.0616665	0.245939	-0.207763	0	0	-0.298648	-0.13509	-0.0902024	0.330907	-0.145738	0	0	-0.272099	0.0473601	0.0743007	0.363103	-0.482532	0.127769	1.46442	1.5708	0	0	0.691433	-0.324867	0.583008	1.12956	1.5708	0	0
20.55	2.98741	1.28729	-1.3231	0.679843	-0.217802	0.954946	-0.336373	0.0439335	-0.0612366	0.244832	-0.208589	0	0	-0.299455	-0.134905	-0.0898671	0.329359	-0.145986	0	0	-0.270796	0.0477188	0.0763363	0.359195	-0.484326	0.124361	1.46774	1.5708	0	0	0.690322	-0.322693	0.582871	1.12937	1.5708	0	0
20.56	2.98726	1.28824	-1.32317	0.679751	-0.217093	0.95481	-0.336291	0.043915	-0.0604796	0.244515	-0.208921	0	0	-0.30001	-0.134524	-0.089728	0.328035	-0.146008	0	0	-0.269475	0.047916	0.0792643	0.354644	-0.486421	0.12009	1.47176	1.5708	0	0	0.688897	-0.320197	0.582207	1.13001	1.5708	0	0
20.57	2.98666	1.28935	-1.32274	0.679667	-0.216386	0.954683	-0.335936	0.0439787	-0.0597472	0.244486	-0.208944	0	0	-0.300313	-0.134233	-0.0893598	0.326711	-0.14601	0	0	-0.268108	0.0480609	0.0826536	0.349234	-0.488604	0.11485	1.4764	1.5708	0	0	0.686779	-0.317504	0.580703	1.13188	1.5708	0	0
20.58	2.98568	1.29071	-1.32187	0.679584	-0.215682	0.954558	-0.33535	0.0439292	-0.0589852	0.244365	-0.208732	0	0	-0.300338	-0.133962	-0.0887626	0.32507	-0.145939	0	0	-0.266632	0.0481639	0.0863753	0.342916	-0.490786	0.108646	1.48189	1.5708	0	0	0.683393	-0.314687	0.577453	1.1352	1.5708	0	0
20.59	2.98488	1.29236	-1.32113	0.679494	-0.214972	0.954434	-0.334512	0.0436838	-0.0584052	0.244112	-0.208372	0	0	-0.300131	-0.133573	-0.0881018	0.323305	-0.145796	0	0	-0.265066	0.0480886	0.0903497	0.335715	-0.492875	0.10142	1.48837	1.5708	0	0	0.678058	-0.311684	0.571434	1.13985	1.5708	0	0
20.6	2.98379	1.29427	-1.32018	0.679396	-0.214268	0.954312	-0.333269	0.0434645	-0.0577702	0.24399	-0.207967	0	0	-0.299569	-0.133154	-0.0872165	0.32213	-0.145743	0	0	-0.263529	0.0479281	0.0947641	0.327239	-0.494704	0.0923544	1.49646	1.5708	0	0	0.670135	-0.307751	0.561498	1.14589	1.5708	0	0
20.61	2.99958	1.28099	-1.33438	0.679588	-0.214005	0.954507	-0.350509	0.0435273	-0.0625902	0.240731	-0.205935	0	0	-0.31548	-0.133587	-0.0911622	0.321962	-0.144538	0	0	-0.282068	0.0401879	0.100561	0.316935	-0.496929	0.0748903	1.50992	1.5708	0	0	0.67492	-0.318673	0.627131	1.13798	1.5708	0	0
20.62	2.99936	1.28219	-1.33418	0.679448	-0.213342	0.954465	-0.350369	0.0440213	-0.0612669	0.23983	-0.205943	0	0	-0.31579	-0.133076	-0.0905543	0.320048	-0.145099	0	0	-0.281674	0.0400653	0.106076	0.305688	-0.499301	0.062854	1.52174	1.5708	0	0	0.664782	-0.313837	0.616117	1.14641	1.5708	0	0
20.63	2.99662	1.28517	-1.33185	0.679318	-0.212636	0.954324	-0.347695	0.0442364	-0.0596084	0.239948	-0.205516	0	0	-0.314048	-0.132705	-0.0897191	0.318276	-0.145522	0	0	-0.281082	0.041155	0.111741	0.29163	-0.500253	0.0466634	1.54006	1.5708	0	0	0.64502	-0.304645	0.587238	1.16094	1.5708	0	0
20.64	2.99282	1.28881	-1.32857	0.679187	-0.211938	0.954145	-0.343932	0.0439981	-0.0582528	0.240746	-0.205026	0	0	-0.311171	-0.132439	-0.0889671	0.317499	-0.14529	0	0	-0.280616	0.0431951	0.116329	0.276584	-0.499902	0.0291617	1.56316	1.5708	0	0	0.619302	-0.294591	0.549481	1.18056	1.5708	0	0
20.65	2.98542	1.29636	-1.32168	0.679037	-0.211161	0.953657	-0.334052	0.0432245	-0.0574476	0.24679	-0.197937	0	0	-0.302191	-0.132363	-0.0881338	0.321407	-0.140787	0	0	-0.276022	0.0463775	0.11917	0.260104	-0.49792	0.0113236	1.59032	1.5708	0	0	0.587401	-0.283331	0.504035	1.20382	1.5708	0	0
20.66	2.98388	1.29825	-1.3202	0.678887	-0.210476	0.953592	-0.333858	0.0430884	-0.0565066	0.243452	-0.201785	0	0	-0.301953	-0.131806	-0.0867232	0.318513	-0.142967	0	0	-0.278031	0.0485327	0.125124	0.238745	-0.497535	-0.0114655	1.62299	1.5708	0	0	0.563505	-0.274528	0.47441	1.22578	1.5708	0	0
20.67	2.98142	1.29901	-1.31818	0.678698	-0.209884	0.953492	-0.334128	0.0433673	-0.0557435	0.241869	-0.203249	0	0	-0.302191	-0.131888	-0.0867598	0.317761	-0.142881	0	0	-0.27794	0.0544903	0.12158	0.230992	-0.495099	-0.015192	1.64663	1.5708	0	0	0.528297	-0.269365	0.430645	1.25164	1.5708	0	0
20.68	2.97808	1.3007	-1.31545	0.678514	-0.20929	0.953352	-0.332523	0.0434707	-0.054596	0.242626	-0.203073	0	0	-0.301426	-0.131843	-0.0863271	0.317034	-0.142377	0	0	-0.276525	0.0608567	0.117138	0.223753	-0.49459	-0.0142663	1.67044	1.5708	0	0	0.491158	-0.262954	0.386371	1.27796	1.5708	0	0
